<svg width="85" height="77" viewBox="0 0 85 77" fill="none" xmlns="http://www.w3.org/2000/svg">
<path fill-rule="evenodd" clip-rule="evenodd" d="M0 6.41667C0 4.71486 0.447766 3.08276 1.2448 1.8794C2.04183 0.676041 3.12283 0 4.25 0H80.75C81.8772 0 82.9582 0.676041 83.7552 1.8794C84.5522 3.08276 85 4.71486 85 6.41667C85 8.11847 84.5522 9.75058 83.7552 10.9539C82.9582 12.1573 81.8772 12.8333 80.75 12.8333H4.25C3.12283 12.8333 2.04183 12.1573 1.2448 10.9539C0.447766 9.75058 0 8.11847 0 6.41667ZM0 38.5C0 36.7982 0.447766 35.1661 1.2448 33.9627C2.04183 32.7594 3.12283 32.0833 4.25 32.0833H80.75C81.8772 32.0833 82.9582 32.7594 83.7552 33.9627C84.5522 35.1661 85 36.7982 85 38.5C85 40.2018 84.5522 41.8339 83.7552 43.0373C82.9582 44.2406 81.8772 44.9167 80.75 44.9167H4.25C3.12283 44.9167 2.04183 44.2406 1.2448 43.0373C0.447766 41.8339 0 40.2018 0 38.5ZM4.25 64.1667C3.12283 64.1667 2.04183 64.8427 1.2448 66.0461C0.447766 67.2494 0 68.8815 0 70.5833C0 72.2851 0.447766 73.9172 1.2448 75.1206C2.04183 76.324 3.12283 77 4.25 77H80.75C81.8772 77 82.9582 76.324 83.7552 75.1206C84.5522 73.9172 85 72.2851 85 70.5833C85 68.8815 84.5522 67.2494 83.7552 66.0461C82.9582 64.8427 81.8772 64.1667 80.75 64.1667H4.25Z" fill="black"/>
</svg>
